HIERARCHY
ROOT Root
{
  OFFSET 0.0 0.0 0.0
  CHANNELS 6 Xposition Yposition Zposition Zrotation Yrotation Xrotation
  JOINT Hips
  {
    OFFSET 0.0 100.0 0.0
    CHANNELS 6 Xposition Yposition Zposition Zrotation Yrotation Xrotation
    JOINT Spine1
    {
      OFFSET 5.003913 -0.037094 -0.013727
      CHANNELS 3 Zrotation Yrotation Xrotation
      JOINT Spine2
      {
        OFFSET 7.125363 -1e-06 0.0
        CHANNELS 3 Zrotation Yrotation Xrotation
        JOINT Chest
        {
          OFFSET 7.594027 1e-06 0.0
          CHANNELS 3 Zrotation Yrotation Xrotation
          JOINT Neck1
          {
            OFFSET 26.313086 -0.460272 -0.181672
            CHANNELS 3 Zrotation Yrotation Xrotation
            JOINT Neck2
            {
              OFFSET 8.045911 0.0 0.0
              CHANNELS 3 Zrotation Yrotation Xrotation
              JOINT Head
              {
                OFFSET 6.432774 0.0 0.0
                CHANNELS 3 Zrotation Yrotation Xrotation
                JOINT HeadEnd
                {
                  OFFSET 16.169773 0.06451 0.00362
                  CHANNELS 3 Zrotation Yrotation Xrotation
                }
                JOINT Jaw
                {
                  OFFSET 0.108741 3.12938 0.002639
                  CHANNELS 3 Zrotation Yrotation Xrotation
                }
                JOINT LeftEye
                {
                  OFFSET 4.45173 8.166359 3.206392
                  CHANNELS 3 Zrotation Yrotation Xrotation
                }
                JOINT RightEye
                {
                  OFFSET 4.436895 8.135758 -3.222429
                  CHANNELS 3 Zrotation Yrotation Xrotation
                }
              }
            }
          }
          JOINT LeftShoulder
          {
            OFFSET 23.218927 5.195579 1.621656
            CHANNELS 3 Zrotation Yrotation Xrotation
            JOINT LeftArm
            {
              OFFSET 15.902118 2e-06 -2e-06
              CHANNELS 3 Zrotation Yrotation Xrotation
              JOINT LeftForeArm
              {
                OFFSET 28.739307 0.0 -1e-06
                CHANNELS 3 Zrotation Yrotation Xrotation
                JOINT LeftHand
                {
                  OFFSET 27.093981 -4e-06 0.0
                  CHANNELS 3 Zrotation Yrotation Xrotation
                  JOINT LeftHandThumb1
                  {
                    OFFSET 2.276781 3.380274 0.83384
                    CHANNELS 3 Zrotation Yrotation Xrotation
                    JOINT LeftHandThumb2
                    {
                      OFFSET 4.705309 -1e-06 -1e-06
                      CHANNELS 3 Zrotation Yrotation Xrotation
                      JOINT LeftHandThumb3
                      {
                        OFFSET 2.798515 0.0 3e-06
                        CHANNELS 3 Zrotation Yrotation Xrotation
                        JOINT LeftHandThumbEnd
                        {
                          OFFSET 3.180793 4e-06 -4e-06
                          CHANNELS 3 Zrotation Yrotation Xrotation
                        }
                      }
                    }
                  }
                  JOINT LeftHandIndex1
                  {
                    OFFSET 3.247786 2.352677 0.137192
                    CHANNELS 3 Zrotation Yrotation Xrotation
                    JOINT LeftHandIndex2
                    {
                      OFFSET 6.367095 1e-06 0.0
                      CHANNELS 3 Zrotation Yrotation Xrotation
                      JOINT LeftHandIndex3
                      {
                        OFFSET 3.662364 0.0 0.0
                        CHANNELS 3 Zrotation Yrotation Xrotation
                        JOINT LeftHandIndex4
                        {
                          OFFSET 2.329242 4e-06 -4e-06
                          CHANNELS 3 Zrotation Yrotation Xrotation
                          JOINT LeftHandIndexEnd
                          {
                            OFFSET 2.767823 1e-06 0.0
                            CHANNELS 3 Zrotation Yrotation Xrotation
                          }
                        }
                      }
                    }
                  }
                  JOINT LeftHandMiddle1
                  {
                    OFFSET 3.163612 0.945023 -0.406112
                    CHANNELS 3 Zrotation Yrotation Xrotation
                    JOINT LeftHandMiddle2
                    {
                      OFFSET 6.276789 3e-06 0.0
                      CHANNELS 3 Zrotation Yrotation Xrotation
                      JOINT LeftHandMiddle3
                      {
                        OFFSET 4.35652 -1e-06 4e-06
                        CHANNELS 3 Zrotation Yrotation Xrotation
                        JOINT LeftHandMiddle4
                        {
                          OFFSET 2.996877 0.0 8e-06
                          CHANNELS 3 Zrotation Yrotation Xrotation
                          JOINT LeftHandMiddleEnd
                          {
                            OFFSET 2.323256 3e-06 -4e-06
                            CHANNELS 3 Zrotation Yrotation Xrotation
                          }
                        }
                      }
                    }
                  }
                  JOINT LeftHandRing1
                  {
                    OFFSET 2.882606 -0.309162 0.107445
                    CHANNELS 3 Zrotation Yrotation Xrotation
                    JOINT LeftHandRing2
                    {
                      OFFSET 6.033198 0.0 4e-06
                      CHANNELS 3 Zrotation Yrotation Xrotation
                      JOINT LeftHandRing3
                      {
                        OFFSET 4.350578 3e-06 0.0
                        CHANNELS 3 Zrotation Yrotation Xrotation
                        JOINT LeftHandRing4
                        {
                          OFFSET 2.651321 2e-06 -7e-06
                          CHANNELS 3 Zrotation Yrotation Xrotation
                          JOINT LeftHandRingEnd
                          {
                            OFFSET 1.937663 1e-06 -4e-06
                            CHANNELS 3 Zrotation Yrotation Xrotation
                          }
                        }
                      }
                    }
                  }
                  JOINT LeftHandPinky1
                  {
                    OFFSET 2.865315 -1.525436 0.575687
                    CHANNELS 3 Zrotation Yrotation Xrotation
                    JOINT LeftHandPinky2
                    {
                      OFFSET 5.54936 1e-06 -8e-06
                      CHANNELS 3 Zrotation Yrotation Xrotation
                      JOINT LeftHandPinky3
                      {
                        OFFSET 3.070974 0.0 -4e-06
                        CHANNELS 3 Zrotation Yrotation Xrotation
                        JOINT LeftHandPinky4
                        {
                          OFFSET 1.549672 1e-06 0.0
                          CHANNELS 3 Zrotation Yrotation Xrotation
                          JOINT LeftHandPinkyEnd
                          {
                            OFFSET 1.952123 0.0 0.0
                            CHANNELS 3 Zrotation Yrotation Xrotation
                          }
                        }
                      }
                    }
                  }
                }
              }
            }
          }
          JOINT RightShoulder
          {
            OFFSET 23.161716 5.296122 -1.380114
            CHANNELS 3 Zrotation Yrotation Xrotation
            JOINT RightArm
            {
              OFFSET -16.027195 -2e-06 1.1e-05
              CHANNELS 3 Zrotation Yrotation Xrotation
              JOINT RightForeArm
              {
                OFFSET -28.736639 4e-06 2e-06
                CHANNELS 3 Zrotation Yrotation Xrotation
                JOINT RightHand
                {
                  OFFSET -27.133619 6e-06 0.0
                  CHANNELS 3 Zrotation Yrotation Xrotation
                  JOINT RightHandThumb1
                  {
                    OFFSET -2.274328 -3.351035 -0.83067
                    CHANNELS 3 Zrotation Yrotation Xrotation
                    JOINT RightHandThumb2
                    {
                      OFFSET -4.703594 -3e-06 2e-06
                      CHANNELS 3 Zrotation Yrotation Xrotation
                      JOINT RightHandThumb3
                      {
                        OFFSET -2.794935 -4e-06 -3e-06
                        CHANNELS 3 Zrotation Yrotation Xrotation
                        JOINT RightHandThumbEnd
                        {
                          OFFSET -3.183852 4e-06 1e-06
                          CHANNELS 3 Zrotation Yrotation Xrotation
                        }
                      }
                    }
                  }
                  JOINT RightHandIndex1
                  {
                    OFFSET -3.253496 -2.33755 -0.127667
                    CHANNELS 3 Zrotation Yrotation Xrotation
                    JOINT RightHandIndex2
                    {
                      OFFSET -6.344434 0.0 0.0
                      CHANNELS 3 Zrotation Yrotation Xrotation
                      JOINT RightHandIndex3
                      {
                        OFFSET -3.654871 0.0 -8e-06
                        CHANNELS 3 Zrotation Yrotation Xrotation
                        JOINT RightHandIndex4
                        {
                          OFFSET -2.327586 -1e-06 0.0
                          CHANNELS 3 Zrotation Yrotation Xrotation
                          JOINT RightHandIndexEnd
                          {
                            OFFSET -2.770001 3e-06 8e-06
                            CHANNELS 3 Zrotation Yrotation Xrotation
                          }
                        }
                      }
                    }
                  }
                  JOINT RightHandMiddle1
                  {
                    OFFSET -3.168223 -0.944764 0.411762
                    CHANNELS 3 Zrotation Yrotation Xrotation
                    JOINT RightHandMiddle2
                    {
                      OFFSET -6.266691 -1e-06 -4e-06
                      CHANNELS 3 Zrotation Yrotation Xrotation
                      JOINT RightHandMiddle3
                      {
                        OFFSET -4.348901 0.0 0.0
                        CHANNELS 3 Zrotation Yrotation Xrotation
                        JOINT RightHandMiddle4
                        {
                          OFFSET -3.00024 2e-06 -4e-06
                          CHANNELS 3 Zrotation Yrotation Xrotation
                          JOINT RightHandMiddleEnd
                          {
                            OFFSET -2.321477 -4e-06 -4e-06
                            CHANNELS 3 Zrotation Yrotation Xrotation
                          }
                        }
                      }
                    }
                  }
                  JOINT RightHandRing1
                  {
                    OFFSET -2.885654 0.293261 -0.119232
                    CHANNELS 3 Zrotation Yrotation Xrotation
                    JOINT RightHandRing2
                    {
                      OFFSET -6.032835 -1e-06 -4e-06
                      CHANNELS 3 Zrotation Yrotation Xrotation
                      JOINT RightHandRing3
                      {
                        OFFSET -4.33881 0.0 -4e-06
                        CHANNELS 3 Zrotation Yrotation Xrotation
                        JOINT RightHandRing4
                        {
                          OFFSET -2.654903 -4e-06 -4e-06
                          CHANNELS 3 Zrotation Yrotation Xrotation
                          JOINT RightHandRingEnd
                          {
                            OFFSET -1.935122 0.0 4e-06
                            CHANNELS 3 Zrotation Yrotation Xrotation
                          }
                        }
                      }
                    }
                  }
                  JOINT RightHandPinky1
                  {
                    OFFSET -2.866241 1.503904 -0.60527
                    CHANNELS 3 Zrotation Yrotation Xrotation
                    JOINT RightHandPinky2
                    {
                      OFFSET -5.553177 -2e-06 0.0
                      CHANNELS 3 Zrotation Yrotation Xrotation
                      JOINT RightHandPinky3
                      {
                        OFFSET -3.062664 -1e-06 -4e-06
                        CHANNELS 3 Zrotation Yrotation Xrotation
                        JOINT RightHandPinky4
                        {
                          OFFSET -1.546529 2e-06 4e-06
                          CHANNELS 3 Zrotation Yrotation Xrotation
                          JOINT RightHandPinkyEnd
                          {
                            OFFSET -1.952341 0.0 -4e-06
                            CHANNELS 3 Zrotation Yrotation Xrotation
                          }
                        }
                      }
                    }
                  }
                }
              }
            }
          }
        }
      }
    }
    JOINT LeftLeg
    {
      OFFSET -8.443107 2.567604 10.043214
      CHANNELS 3 Zrotation Yrotation Xrotation
      JOINT LeftShin
      {
        OFFSET 43.229198 1e-06 -1e-06
        CHANNELS 3 Zrotation Yrotation Xrotation
        JOINT LeftFoot
        {
          OFFSET 42.298611 1e-06 1e-06
          CHANNELS 3 Zrotation Yrotation Xrotation
          JOINT LeftToeBase
          {
            OFFSET 14.165858 1e-06 0.0
            CHANNELS 3 Zrotation Yrotation Xrotation
            JOINT LeftToeEnd
            {
              OFFSET 6.7141 -0.234461 0.0
              CHANNELS 3 Zrotation Yrotation Xrotation
            }
          }
        }
      }
    }
    JOINT RightLeg
    {
      OFFSET -8.303923 2.592729 -10.047278
      CHANNELS 3 Zrotation Yrotation Xrotation
      JOINT RightShin
      {
        OFFSET -43.369682 0.0 1e-06
        CHANNELS 3 Zrotation Yrotation Xrotation
        JOINT RightFoot
        {
          OFFSET -42.260784 4e-06 2e-06
          CHANNELS 3 Zrotation Yrotation Xrotation
          JOINT RightToeBase
          {
            OFFSET -14.222245 -2e-06 -1e-06
            CHANNELS 3 Zrotation Yrotation Xrotation
            JOINT RightToeEnd
            {
              OFFSET -6.660062 0.232574 -2e-06
              CHANNELS 3 Zrotation Yrotation Xrotation
            }
          }
        }
      }
    }
  }
}
MOTION
Frames: 5
Frame Time: 0.03333333333333333
0.0 0.0 0.0 0.0 -0.0 0.0 1.633662 99.938972 2.464271 91.03476 0.554072 90.191582 -1.311683 -0.112346 -0.168258 -11.460414 -0.571931 -0.11998 16.390413 -0.204531 -2.308688 17.627609 -1.795401 2.668006 -2.405663 -0.695253 1.232737 -26.095619 -0.005563 1.467083 6e-06 0.0 -0.0 -0.009149 0.019622 0.0042 -0.002728 0.105189 0.003334 0.017469 -0.071185 0.013386 -142.435486 -71.444336 161.138611 30.745499 -39.852489 23.949148 38.823826 -0.011576 0.022289 5.338125 -3.283368 8.836688 17.636623 -26.322721 52.411175 -19.46666 -14.395594 29.410385 0.0 -8.774821 -2e-06 16.019817 -18.51815 6.204554 -0.609776 -1.795654 -3.889327 -4.807089 -11.046811 -2.937849 3e-06 -20.976017 -2e-06 -5.019972 -25.033556 -4.03188 7e-06 0.0 0.0 -10.634533 -5.68697 -3.565586 10.573271 -17.922947 -3.1139 2e-06 -13.82121 0.0 -0.501779 -31.181505 -4.027016 -11.570349 -59.797554 7.155788 -13.982712 -7.150198 -2.87504 13.772726 -8.401489 -3.21824 0.347732 -34.211544 0.771653 -0.963031 -17.73337 2.62102 -1e-06 2e-06 2e-06 -17.346413 -20.095217 -4.201781 21.757555 -1.638374 3.866427 1e-06 -6.338823 1e-06 -1.69759 -22.591745 -6.194007 -0.0 -2e-06 -2e-06 38.465405 -76.865799 159.990845 38.51091 -49.201633 12.135138 35.425777 -0.219737 0.01701 1.599885 -8.29488 22.968086 22.182119 -20.375895 49.933319 -16.701811 -16.743526 28.476528 -2e-06 -12.690601 -2e-06 16.393656 -18.064447 2.737719 -0.10592 -1.513856 -4.275882 -5.039042 -5.612871 -2.953555 4e-06 -11.020525 -3e-06 -6.1113 -15.895332 -3.84047 1e-06 -0.0 -2e-06 -10.283371 -5.680288 -4.341838 11.028293 -11.302405 -2.37263 -1.38427 -14.238581 -6.320121 -0.625437 -26.924194 -3.827604 -4.755814 -50.333702 -3.766688 -13.708525 -7.363476 -3.72094 18.141148 -14.052739 -3.242675 7e-06 -18.78727 -3e-06 -0.429711 -8.456043 2.555503 -1e-06 2e-06 1e-06 -15.923536 -20.094484 -5.473583 30.41921 -7.190824 1.735927 1e-06 -8.162925 -1e-06 -1.8619 -22.861471 -6.167942 -0.0 -5e-06 -2e-06 175.550201 -3.967303 -11.508821 14.353571 0.01 0.045546 -77.438004 -1.331036 -6.785406 -6.408204 1.475361 2.0759 -0.999999 -0.0 -0.0 -5.637951 -5.746404 -6.151559 17.453842 -0.024862 -0.027597 -79.581238 -2.531838 -7.143465 -6.293281 0.819132 1.686422 -1.000003 -0.0 0.0 
0.0 0.0 0.0 0.0 -0.0 0.0 1.65738 99.966499 2.485734 91.071259 0.581216 90.153015 -1.280165 -0.136793 -0.185754 -11.438482 -0.554015 -0.083094 16.376709 -0.210833 -2.309363 17.560068 -1.768692 2.653534 -2.389984 -0.693593 1.273542 -26.128693 -0.078948 1.474177 6e-06 0.0 0.0 -0.008576 0.019823 0.029975 0.010245 0.108409 0.030407 0.029798 -0.074 0.037725 -142.450043 -71.449295 161.285355 30.683508 -39.922516 23.767786 38.778866 -0.093735 -0.016038 5.510818 -3.153833 8.774461 17.636629 -26.322729 52.41119 -19.466661 -14.395596 29.410389 -1e-06 -8.774821 -2e-06 15.96784 -18.46336 6.168638 -0.609776 -1.795653 -3.889329 -4.807087 -11.046808 -2.937851 5e-06 -20.976015 0.0 -5.01997 -25.033552 -4.03188 6e-06 -0.0 -1e-06 -10.634533 -5.686969 -3.565587 10.573276 -17.922949 -3.113901 4e-06 -13.821208 2e-06 -0.501775 -31.181501 -4.027014 -11.476392 -59.667255 7.112016 -13.982714 -7.150196 -2.875044 13.772731 -8.401493 -3.21824 0.347736 -34.211555 0.771653 -0.963027 -17.733368 2.621021 -1e-06 1e-06 1e-06 -17.346416 -20.095217 -4.201782 21.757557 -1.638377 3.866429 1e-06 -6.338823 1e-06 -1.697589 -22.591745 -6.194006 0.0 -2e-06 -2e-06 38.392593 -76.810059 160.221252 38.197533 -49.176201 12.229363 35.448357 -0.272472 0.025383 1.637843 -8.376019 22.888769 22.182108 -20.375887 49.933308 -16.701811 -16.743525 28.476524 -2e-06 -12.690597 -1e-06 16.354204 -18.054426 2.742871 -0.10592 -1.513855 -4.275879 -5.039041 -5.612873 -2.953556 3e-06 -11.02052 -2e-06 -6.111298 -15.895334 -3.84047 1e-06 0.0 -0.0 -10.283369 -5.680287 -4.341838 11.028289 -11.302404 -2.372633 -1.384269 -14.238577 -6.32012 -0.625439 -26.924187 -3.8276 -4.801174 -50.368401 -3.723299 -13.70852 -7.363475 -3.72094 18.141142 -14.052736 -3.242672 6e-06 -18.787268 -3e-06 -0.429712 -8.456041 2.5555 1e-06 2e-06 1e-06 -15.923532 -20.094481 -5.473583 30.419205 -7.19082 1.735924 -1e-06 -8.162922 -1e-06 -1.861902 -22.861464 -6.167941 -1e-06 -6e-06 -4e-06 175.788528 -3.873658 -11.522864 13.96802 0.019498 0.083024 -77.277031 -1.357296 -6.887671 -6.472613 1.501614 2.080937 -0.999999 1e-06 -0.0 -5.49439 -5.781507 -6.07828 17.232573 -0.019017 -0.024255 -79.481789 -2.523182 -7.149268 -6.350335 0.80333 1.683943 -1.000002 0.0 -0.0 
0.0 0.0 0.0 0.0 -0.0 0.0 1.69205 99.977699 2.493112 91.11718 0.612483 90.104454 -1.255235 -0.167344 -0.192147 -11.426326 -0.543986 -0.065904 16.410051 -0.210729 -2.287946 17.476357 -1.745265 2.665713 -2.40818 -0.677258 1.260241 -26.125858 -0.154964 1.484822 6e-06 0.0 -0.0 -0.008396 0.021173 0.042544 0.007573 0.110176 0.04521 0.029314 -0.073332 0.047642 -142.485046 -71.456924 161.408447 30.576971 -39.95438 23.703573 38.799698 -0.158441 -0.047141 5.610655 -2.984765 8.440225 17.636629 -26.322731 52.41119 -19.46666 -14.395598 29.410381 -1e-06 -8.774822 -1e-06 15.948866 -18.449173 6.151303 -0.609777 -1.795652 -3.889328 -4.807087 -11.046811 -2.93785 4e-06 -20.976019 1e-06 -5.01997 -25.033556 -4.031882 6e-06 0.0 1e-06 -10.634535 -5.686969 -3.565587 10.573274 -17.922951 -3.113899 3e-06 -13.821209 1e-06 -0.501777 -31.181505 -4.027014 -11.490617 -59.569099 7.096432 -13.982714 -7.150198 -2.875042 13.772729 -8.401491 -3.21824 0.347733 -34.211555 0.771655 -0.963032 -17.73337 2.621023 -1e-06 2e-06 0.0 -17.346416 -20.095217 -4.20178 21.757557 -1.638375 3.866427 1e-06 -6.338823 1e-06 -1.69759 -22.591743 -6.194005 -0.0 -4e-06 -3e-06 38.157234 -76.747673 160.555878 37.744034 -49.102482 12.53317 35.602386 -0.295494 0.038874 1.606169 -8.356898 22.719097 22.182117 -20.375895 49.933323 -16.701813 -16.74353 28.47653 -3e-06 -12.690601 -2e-06 16.331829 -18.016855 2.744888 -0.10592 -1.513857 -4.275881 -5.039041 -5.61287 -2.953557 5e-06 -11.02052 -2e-06 -6.111297 -15.89533 -3.840472 0.0 1e-06 -1e-06 -10.283371 -5.680286 -4.341839 11.028296 -11.302403 -2.372634 -1.384268 -14.238579 -6.320121 -0.625436 -26.924183 -3.827602 -4.831829 -50.362404 -3.708118 -13.708526 -7.363475 -3.72094 18.141153 -14.052739 -3.242676 7e-06 -18.787268 -3e-06 -0.429711 -8.456042 2.555503 2e-06 2e-06 2e-06 -15.923538 -20.094482 -5.473587 30.419218 -7.190825 1.735927 1e-06 -8.162925 -2e-06 -1.861899 -22.861469 -6.167942 -1e-06 -4e-06 -1e-06 175.942627 -3.778409 -11.560262 13.749004 0.019897 0.104913 -77.190262 -1.390817 -6.933616 -6.469186 1.512149 2.086189 -0.999999 0.0 0.0 -5.433476 -5.852258 -6.035906 17.166985 -0.008101 -0.022121 -79.446526 -2.509202 -7.197389 -6.331852 0.797761 1.684633 -1.000002 -0.0 -0.0 
0.0 0.0 0.0 0.0 -0.0 0.0 1.731786 99.98391 2.488619 91.151779 0.64665 90.060287 -1.230331 -0.199106 -0.195189 -11.424368 -0.528797 -0.053213 16.459591 -0.208151 -2.245015 17.399967 -1.72262 2.664004 -2.432043 -0.668455 1.255601 -26.150631 -0.212932 1.462703 5e-06 0.0 0.0 -0.008078 0.022788 0.049701 -0.000793 0.109886 0.053944 0.02258 -0.069991 0.052749 -142.52359 -71.458 161.530075 30.516876 -39.954617 23.690657 38.784225 -0.220666 -0.07097 5.685975 -2.678313 8.085153 17.636625 -26.322729 52.411201 -19.466663 -14.395596 29.410389 0.0 -8.774821 -1e-06 15.927732 -18.435966 6.148201 -0.609776 -1.795654 -3.889326 -4.807089 -11.046813 -2.93785 5e-06 -20.976021 -3e-06 -5.019971 -25.033562 -4.031883 7e-06 -0.0 -0.0 -10.634533 -5.686974 -3.565585 10.573271 -17.922955 -3.113902 2e-06 -13.821211 -0.0 -0.501774 -31.181519 -4.027022 -11.497338 -59.51284 7.078167 -13.982714 -7.150199 -2.87504 13.772731 -8.401492 -3.218244 0.347734 -34.211555 0.771649 -0.96303 -17.73337 2.62102 0.0 1e-06 0.0 -17.34642 -20.095224 -4.201779 21.757557 -1.638373 3.866428 -1e-06 -6.338824 0.0 -1.697591 -22.591751 -6.19401 2e-06 -4e-06 -3e-06 37.823662 -76.679581 160.965683 37.218315 -49.000462 13.07713 35.831444 -0.249094 0.061695 1.563995 -8.271964 22.449013 22.182119 -20.3759 49.933319 -16.701813 -16.743528 28.476532 -3e-06 -12.690601 -0.0 16.300962 -17.977795 2.77052 -0.105919 -1.513855 -4.275879 -5.039042 -5.612872 -2.953557 4e-06 -11.020525 -1e-06 -6.111298 -15.895334 -3.840471 0.0 1e-06 -1e-06 -10.283371 -5.680288 -4.341838 11.028293 -11.302406 -2.372632 -1.384269 -14.238582 -6.32012 -0.625441 -26.924192 -3.827597 -4.860964 -50.334827 -3.672721 -13.708526 -7.363476 -3.720939 18.14115 -14.052741 -3.242674 7e-06 -18.787271 -3e-06 -0.429713 -8.456045 2.555503 2e-06 2e-06 1e-06 -15.923534 -20.094482 -5.473586 30.419214 -7.190827 1.735928 -0.0 -8.162927 -1e-06 -1.861903 -22.861471 -6.167938 -1e-06 -4e-06 -2e-06 176.05159 -3.704208 -11.63441 13.612987 0.017204 0.115448 -77.134033 -1.416371 -6.946966 -6.483124 1.513738 2.086338 -0.999999 -0.0 0.0 -5.389583 -5.919346 -6.034036 17.128744 -0.001685 -0.02345 -79.416771 -2.470619 -7.261252 -6.326975 0.792084 1.684269 -1.000002 -0.0 0.0 
0.0 0.0 0.0 0.0 -0.0 0.0 1.772646 99.994843 2.484048 91.172958 0.666647 90.050491 -1.223001 -0.22849 -0.187443 -11.425227 -0.50975 -0.039761 16.511515 -0.207187 -2.220628 17.299706 -1.676359 2.651351 -2.446323 -0.659144 1.259216 -26.214273 -0.261677 1.439194 6e-06 0.0 0.0 -0.003396 0.024175 0.055656 -0.003072 0.111233 0.060416 0.020192 -0.068552 0.057834 -142.566727 -71.455338 161.652206 30.545805 -39.903923 23.689585 38.738792 -0.279153 -0.088948 5.750874 -2.234956 7.616433 17.636635 -26.322733 52.41119 -19.466661 -14.395597 29.410389 -1e-06 -8.774821 -1e-06 15.895645 -18.424889 6.154222 -0.609775 -1.795653 -3.889329 -4.80709 -11.046811 -2.93785 5e-06 -20.976019 0.0 -5.019971 -25.03356 -4.031881 7e-06 2e-06 0.0 -10.634533 -5.686971 -3.565587 10.573275 -17.922951 -3.113901 3e-06 -13.821209 2e-06 -0.501775 -31.181505 -4.027014 -11.490126 -59.464031 7.082022 -13.982712 -7.150198 -2.875042 13.77273 -8.401493 -3.21824 0.347736 -34.211555 0.771653 -0.963028 -17.73337 2.621022 -1e-06 0.0 0.0 -17.346418 -20.095219 -4.201782 21.757557 -1.638376 3.866428 1e-06 -6.338824 2e-06 -1.697587 -22.591749 -6.194007 0.0 -1e-06 -2e-06 37.42318 -76.600266 161.415909 36.708324 -48.858685 13.747933 36.097492 -0.19306 0.083107 1.524145 -8.105015 22.06813 22.182119 -20.375895 49.933323 -16.701817 -16.74353 28.47653 -3e-06 -12.690601 -2e-06 16.250387 -17.945993 2.813764 -0.105919 -1.513855 -4.275883 -5.039042 -5.61287 -2.953555 5e-06 -11.020523 -1e-06 -6.111298 -15.895332 -3.840472 -0.0 0.0 -3e-06 -10.283371 -5.680288 -4.341839 11.028294 -11.302404 -2.372633 -1.384267 -14.238577 -6.320121 -0.625438 -26.924187 -3.8276 -4.857652 -50.299927 -3.648984 -13.708525 -7.363476 -3.720938 18.141151 -14.052739 -3.242674 8e-06 -18.78727 -3e-06 -0.429709 -8.456044 2.555503 1e-06 2e-06 1e-06 -15.923536 -20.094482 -5.473585 30.41921 -7.190825 1.735928 2e-06 -8.162927 0.0 -1.861901 -22.861469 -6.16794 0.0 -6e-06 -3e-06 176.147629 -3.641477 -11.705425 13.459243 0.01363 0.115981 -77.063828 -1.409248 -6.927749 -6.489075 1.50953 2.082887 -0.999999 -1e-06 -0.0 -5.324018 -5.973634 -6.076414 17.030193 0.003672 -0.022563 -79.359482 -2.422997 -7.341489 -6.315399 0.791919 1.686589 -1.000002 0.0 0.0 
